<?xml version="1.0" encoding="UTF-8" standalone="no"?>
<!-- Created with Inkscape (http://www.inkscape.org/) -->

<svg
   xmlns:dc="http://purl.org/dc/elements/1.1/"
   xmlns:cc="http://creativecommons.org/ns#"
   xmlns:rdf="http://www.w3.org/1999/02/22-rdf-syntax-ns#"
   xmlns:svg="http://www.w3.org/2000/svg"
   xmlns="http://www.w3.org/2000/svg"
   xmlns:sodipodi="http://sodipodi.sourceforge.net/DTD/sodipodi-0.dtd"
   xmlns:inkscape="http://www.inkscape.org/namespaces/inkscape"
   width="264.58334mm"
   height="157.4399mm"
   viewBox="0 0 264.58335 157.4399"
   version="1.1"
   id="svg4708"
   inkscape:version="0.92.2 (5c3e80d, 2017-08-06)"
   sodipodi:docname="BTPN.svg">
  <defs
     id="defs4702" />
  <sodipodi:namedview
     id="base"
     pagecolor="#ffffff"
     bordercolor="#666666"
     borderopacity="1.0"
     inkscape:pageopacity="0.0"
     inkscape:pageshadow="2"
     inkscape:zoom="0.35"
     inkscape:cx="1.6758919"
     inkscape:cy="208.97799"
     inkscape:document-units="mm"
     inkscape:current-layer="layer1"
     showgrid="false"
     fit-margin-top="0"
     fit-margin-left="0"
     fit-margin-right="0"
     fit-margin-bottom="0"
     inkscape:window-width="1600"
     inkscape:window-height="837"
     inkscape:window-x="-8"
     inkscape:window-y="-8"
     inkscape:window-maximized="1" />
  <metadata
     id="metadata4705">
    <rdf:RDF>
      <cc:Work
         rdf:about="">
        <dc:format>image/svg+xml</dc:format>
        <dc:type
           rdf:resource="http://purl.org/dc/dcmitype/StillImage" />
        <dc:title></dc:title>
      </cc:Work>
    </rdf:RDF>
  </metadata>
  <g
     inkscape:label="Layer 1"
     inkscape:groupmode="layer"
     id="layer1"
     transform="translate(23.499961,-46.685533)">
    <g
       id="g5323"
       transform="matrix(7.9233658,0,0,7.9233658,162.69889,-1413.2355)">
      <path
         inkscape:connector-curvature="0"
         id="path174"
         style="fill:#f58220;fill-opacity:1;fill-rule:nonzero;stroke:none;stroke-width:0.35277775"
         d="m 9.4597769,188.3972 c -0.522816,-0.30304 -1.314098,0.0875 -1.766712,0.87277 -0.45085,0.78423 -0.394404,1.66617 0.129471,1.96921 0.52211,0.30339 1.312685,-0.0871 1.764945,-0.87066 0.4526151,-0.78563 0.395465,-1.66793 -0.127704,-1.97132" />
      <path
         inkscape:connector-curvature="0"
         id="path178"
         style="fill:#f58220;fill-opacity:1;fill-rule:nonzero;stroke:none;stroke-width:0.35277775"
         d="m 8.1227129,197.6537 v -3.34892 c 0,-0.91087 -0.105833,-1.42698 -0.388762,-1.8983 -0.410986,-0.72883 -1.125361,-1.06962 -2.126192,-1.06962 -1.141942,0 -1.960033,0.41275 -2.600325,1.32362 l -0.0071,-0.006 v -1.04316 h -1.272471 -0.296333 -1.55222203 v 0.48683 l 0.08537,3.5e-4 c 0.929217,0.0162 1.031522,0.1203 1.031522,1.37583 v 4.17971 c 0,1.31622 -0.08855,1.40547 -1.060803,1.41993 l -0.0695,0.001 v 0.53517 H 4.1405049 v -0.53517 l -0.08573,-0.001 c -0.956733,-0.0145 -1.045633,-0.0878 -1.045633,-1.41993 v -3.01694 c 0,-0.4826 0.161925,-1.08444 0.396169,-1.51025 0.364773,-0.62724 0.881591,-0.95144 1.478139,-0.95144 0.849842,0 1.240367,0.59055 1.240367,2.21968 v 3.25896 c 0,1.3021 -0.103365,1.40547 -1.045633,1.41993 l -0.08678,0.001 v 0.53517 h 4.277784 v -0.53517 l -0.08573,-0.001 c -0.974019,-0.0145 -1.060802,-0.10372 -1.060802,-1.41993" />
      <path
         inkscape:connector-curvature="0"
         id="path182"
         style="fill:#f58220;fill-opacity:1;fill-rule:nonzero;stroke:none;stroke-width:0.35277775"
         d="m -18.176905,191.41006 c -0.525992,0 -0.965906,0.10443 -1.349375,0.32526 v 0.74895 c 0.287866,-0.28575 0.636764,-0.44485 0.994833,-0.44485 0.954264,0 1.854906,1.16381 1.854906,3.59869 0,2.43063 -0.928159,3.58422 -1.928636,3.58422 -1.621367,0 -1.650648,-1.55575 -1.716264,-1.94099 0,0 -0.0092,-8.97431 0,-9.16093 h -0.973314 -2.205214 v 0.51823 h 0.08643 c 0.970139,0 1.053395,0.23636 1.053395,1.5106 v 6.5218 c 0,2.54635 2.659592,3.07693 3.662539,3.07693 2.265539,0 4.158897,-1.65206 4.158897,-4.3614 0,-2.48778 -1.549753,-3.97651 -3.638197,-3.97651" />
      <path
         inkscape:connector-curvature="0"
         id="path186"
         style="fill:#f58220;fill-opacity:1;fill-rule:nonzero;stroke:none;stroke-width:0.35277775"
         d="m -3.6713541,191.51939 c -0.914753,0 -1.56457,0.27834 -2.192161,0.91299 v -0.81668 l -3.173942,0.004 v 0.63359 c 0.796925,0.0116 1.075972,0.10654 1.115483,0.91228 v 9.5631 c -0.03598,0.79022 -0.215194,0.84702 -1.033286,0.8696 l -0.0822,0.003 v 0.52422 h 4.298244 v -0.52422 l -0.08149,-0.003 c -0.638881,-0.0243 -0.919339,-0.0589 -1.039636,-0.35913 v -8.70726 c 0.215194,-1.52788 0.825852,-2.36644 1.716969,-2.36644 0.955322,0 1.526469,1.13524 1.526469,3.52355 0,2.45604 -0.597252,3.5687 -1.704622,3.5687 -0.231422,0 -0.460022,-0.0702 -0.665339,-0.1965 v 0.63994 c 0.300567,0.0995 0.620889,0.14252 1.006123,0.14252 1.026583,0 1.98508,-0.40887 2.566458,-1.12747 0.59301897,-0.72955 0.93591897,-1.90571 0.93591897,-3.23392 0,-2.50014 -1.14617497,-3.96275 -3.19299097,-3.96275" />
      <path
         inkscape:connector-curvature="0"
         id="path190"
         style="fill:#f58220;fill-opacity:1;fill-rule:nonzero;stroke:none;stroke-width:0.35277775"
         d="m -11.094187,195.28243 c 0.0039,-0.0194 0.0053,-0.0363 0.0053,-0.0554 v -2.96862 h 1.4908389 v -0.64417 h -1.4908469 v -2.34068 h -0.853722 l -0.01199,0.0741 c -0.132291,0.73484 -0.277283,1.15076 -0.534105,1.55187 -0.324908,0.508 -0.871361,0.71614 -1.496836,0.74507 l -0.315737,0.004 v 0.6103 h 1.077384 v 2.64372 l 0.0039,0.0868 c -0.0039,2.39889 -0.07373,3.13478 0.378178,3.71193 0.37465,0.48154 1.113014,1.12818 2.720975,1.12818 0.3827639,0 0.7062609,-0.043 1.0043579,-0.14146 v -0.64029 c -0.204964,0.12488 -0.433564,0.19614 -0.664633,0.19614 -1.3380859,0 -1.3133919,-0.75142 -1.3130389,-3.96099" />
      <path
         inkscape:connector-curvature="0"
         id="path194"
         style="fill:#7c6a55;fill-opacity:1;fill-rule:nonzero;stroke:none;stroke-width:0.35277775"
         d="m -1.5810031,186.11282 c 0.08079,-0.1277 0.175331,-0.23354 0.282575,-0.32279 0.115006,-0.09 0.244122,-0.15875 0.38946697,-0.20567 0.147108,-0.0515 0.307269,-0.0765 0.483305,-0.0765 0.184856,0 0.3556,0.0268 0.510117,0.084 0.16263,0.0568 0.300214,0.14111 0.413455,0.25612 0.121003,0.11183 0.210962,0.24871 0.272698,0.41381 0.06668,0.16157 0.09807,0.34572 0.09807,0.55315 v 2.25672 c 0,0.0434 -0.03916,0.0833 -0.08326,0.0833 h -0.131233 c -0.04551,0 -0.08396,-0.0399 -0.08396,-0.0833 v -2.23732 c 0,-0.19085 -0.02858,-0.34783 -0.07973,-0.47095 -0.05292,-0.13053 -0.125942,-0.23672 -0.216605,-0.31503 -0.0882,-0.0843 -0.195087,-0.14429 -0.315031,-0.18063 -0.118533,-0.0409 -0.246592,-0.0628 -0.384528,-0.0628 -0.192616,0 -0.358422,0.0385 -0.499533,0.11112 -0.14287497,0.0692 -0.26387797,0.16581 -0.36265597,0.28858 -0.09454,0.11888 -0.166864,0.25858 -0.217664,0.42262 -0.0508,0.16405 -0.07549,0.3362 -0.07549,0.51894 v 1.92546 c 0,0.0434 -0.0388,0.0833 -0.08255,0.0833 h -0.132644 c -0.04375,0 -0.0822,-0.0399 -0.0822,-0.0833 v -3.40254 c 0,-0.0423 0.03845,-0.0819 0.0822,-0.0819 h 0.132644 c 0.04375,0 0.08255,0.0395 0.08255,0.0819 z" />
      <path
         inkscape:connector-curvature="0"
         id="path198"
         style="fill:#7c6a55;fill-opacity:1;fill-rule:nonzero;stroke:none;stroke-width:0.35277775"
         d="m -8.7430621,188.49894 v 0.57327 c 0,0.0441 -0.03881,0.0818 -0.08255,0.0818 h -0.132292 c -0.04374,0 -0.08255,-0.0378 -0.08255,-0.0818 v -4.72582 c 0,-0.0452 0.03881,-0.0833 0.08255,-0.0833 h 0.132292 c 0.04374,0 0.08255,0.0381 0.08255,0.0833 v 1.87572 c 0.08714,-0.15698 0.204611,-0.29562 0.347486,-0.41169 0.251883,-0.20285 0.569736,-0.30268 0.94615,-0.30268 0.24518,0 0.46743,0.0504 0.661105,0.15452 0.191912,0.10336 0.351014,0.24059 0.478367,0.41486 0.129117,0.17251 0.226131,0.36936 0.290336,0.59408 0.06879,0.22472 0.103717,0.46002 0.103717,0.70626 0,0.26282 -0.03492,0.50659 -0.103717,0.73272 -0.069144,0.22507 -0.170391,0.42157 -0.306564,0.5902 -0.131233,0.16298 -0.292452,0.29245 -0.484364,0.38629 -0.188736,0.0942 -0.402166,0.1404 -0.63888,0.1404 -0.365125,0 -0.676628,-0.0988 -0.932039,-0.30233 -0.148167,-0.12065 -0.269169,-0.26211 -0.361597,-0.4258 m 0.089253,-0.51788 c 0.05856,0.19121 0.141816,0.3549 0.250472,0.49707 0.111125,0.14076 0.248355,0.25153 0.408869,0.33478 0.160161,0.0819 0.340784,0.12277 0.545042,0.12277 0.209903,0 0.388055,-0.0416 0.536928,-0.12206 0.15628,-0.0829 0.283986,-0.19403 0.381352,-0.33232 0.104775,-0.14605 0.183798,-0.31432 0.233187,-0.50376 0.05609,-0.1905 0.08361,-0.39123 0.08361,-0.60008 0,-0.1912 -0.02575,-0.38135 -0.07726,-0.56797 -0.04692,-0.1905 -0.119592,-0.35842 -0.219781,-0.50483 -0.098425,-0.14781 -0.227542,-0.26846 -0.384881,-0.35948 -0.147461,-0.0914 -0.331258,-0.1404 -0.553155,-0.1404 -0.393347,0 -0.702733,0.13546 -0.936625,0.40287 -0.235303,0.26247 -0.357011,0.64841 -0.357011,1.16981 0,0.21237 0.02928,0.41381 0.08925,0.6036" />
      <path
         inkscape:connector-curvature="0"
         id="path202"
         style="fill:#7c6a55;fill-opacity:1;fill-rule:nonzero;stroke:none;stroke-width:0.35277775"
         d="m -2.9648801,188.61874 -0.03634,0.049 c -0.08184,0.11007 -0.185204,0.20532 -0.31044,0.28998 -0.12312,0.0857 -0.262467,0.14958 -0.419806,0.1958 -0.159808,0.0512 -0.329494,0.0762 -0.514702,0.0762 -0.355248,0 -0.650523,-0.078 -0.875948,-0.24025 -0.231069,-0.17286 -0.344664,-0.42968 -0.344664,-0.756 0,-0.21837 0.03457,-0.40358 0.109009,-0.54716 0.07585,-0.13934 0.17533,-0.25082 0.298097,-0.32879 0.121356,-0.0832 0.255058,-0.13582 0.407811,-0.16404 0.144992,-0.0328 0.289631,-0.0529 0.433564,-0.0621 l 0.602544,-0.0317 c 0.164748,-0.0138 0.293512,-0.0353 0.391937,-0.0631 0.100188,-0.0321 0.161219,-0.0748 0.197202,-0.12242 0.03704,-0.0519 0.06174,-0.13123 0.06174,-0.24976 0,-0.0974 -0.0081,-0.19826 -0.02469,-0.30375 -0.01588,-0.0967 -0.05609,-0.18591 -0.118181,-0.26775 -0.05574,-0.0787 -0.142169,-0.14641 -0.263878,-0.19862 -0.118533,-0.0561 -0.283986,-0.0868 -0.503414,-0.0868 -0.345016,0 -0.600075,0.0868 -0.779286,0.24518 -0.178505,0.15381 -0.281869,0.37677 -0.302683,0.67839 -0.0035,0.0388 -0.04375,0.0755 -0.08326,0.0755 h -0.132292 c -0.04692,0 -0.08573,-0.0392 -0.08255,-0.0861 0.0085,-0.16792 0.04375,-0.32491 0.105481,-0.47096 0.06209,-0.15134 0.14993,-0.28258 0.264936,-0.393 0.118886,-0.10971 0.262114,-0.19402 0.424391,-0.25505 0.170745,-0.0614 0.365831,-0.091 0.585259,-0.091 0.15628,0 0.304094,0.0162 0.442383,0.0487 0.148167,0.0328 0.276931,0.0921 0.388408,0.17921 0.113595,0.084 0.201789,0.19333 0.26917,0.32703 0.06809,0.13758 0.103364,0.30656 0.108303,0.49953 v 2.50896 c 0,0.0437 -0.04022,0.0826 -0.08326,0.0826 h -0.132292 c -0.04374,0 -0.08255,-0.0388 -0.08255,-0.0826 z m 0,-1.37124 c -0.0321,0.0194 -0.06879,0.0374 -0.107597,0.0519 -0.09772,0.0314 -0.209197,0.0582 -0.333728,0.0765 -0.121355,0.0183 -0.255058,0.0296 -0.399697,0.0339 -0.136525,0.004 -0.269169,0.0106 -0.401461,0.0201 -0.128764,0.009 -0.256822,0.0261 -0.379942,0.0512 -0.113241,0.0197 -0.214841,0.0614 -0.301272,0.12065 -0.08325,0.0519 -0.151694,0.12982 -0.203553,0.23248 -0.04939,0.0942 -0.07726,0.22613 -0.07726,0.39934 0,0.0878 0.01411,0.17392 0.04128,0.26423 0.03034,0.0801 0.07902,0.14993 0.150989,0.21837 0.0702,0.0624 0.159456,0.11607 0.276578,0.16193 0.116416,0.0395 0.262466,0.061 0.441678,0.061 0.210608,0 0.395816,-0.0367 0.555625,-0.10584 0.164041,-0.0709 0.297391,-0.16298 0.403577,-0.27234 0.111831,-0.11606 0.193675,-0.24836 0.24765,-0.39546 0.05821,-0.15029 0.08714,-0.3041 0.08714,-0.46108 z" />
      <path
         inkscape:connector-curvature="0"
         id="path206"
         style="fill:#7c6a55;fill-opacity:1;fill-rule:nonzero;stroke:none;stroke-width:0.35277775"
         d="m 4.4559769,189.08737 -1.542345,-2.13677 1.18992,-1.24495 c 0,0 0.04586,-0.0455 0.04198,-0.0681 -0.0028,-0.0155 -0.02363,-0.0314 -0.03845,-0.0314 0,0 -0.237066,0.004 -0.255764,0.004 -0.08149,0 -0.131938,0.06 -0.131938,0.06 l -1.761776,1.7586 v -3.09069 c 0,-0.0441 -0.039511,-0.0829 -0.08255,-0.0829 h -0.161925 c -0.04445,0 -0.08255,0.0388 -0.08255,0.0829 v 4.73428 c 0,0.0441 0.0381,0.0825 0.08255,0.0825 h 0.161925 c 0.04375,0 0.08255,-0.0385 0.08255,-0.0825 v -1.21003 l 0.702734,-0.68016 1.35255,1.91665 c 0.02188,0.031 0.0448,0.0529 0.110773,0.0529 0.06526,0 0.286808,-0.002 0.286808,-0.002 0.01482,-0.001 0.04092,-0.0123 0.04798,-0.0254 0.0064,-0.012 0.0056,-0.0261 -0.0024,-0.037" />
    </g>
  </g>
</svg>
